<svg width="15" height="15" viewBox="0 0 15 15" fill="none" xmlns="http://www.w3.org/2000/svg">
<path d="M6.17367 0.653786C6.49538 -0.2179 7.72826 -0.217899 8.04996 0.653786L8.49387 1.85658C8.69577 2.40363 9.32099 2.6626 9.85057 2.41855L11.015 1.88193C11.8588 1.49304 12.7306 2.36481 12.3417 3.20867L11.8051 4.37307C11.561 4.90265 11.82 5.52787 12.367 5.72976L13.5698 6.17367C14.4415 6.49538 14.4415 7.72826 13.5698 8.04996L12.367 8.49387C11.82 8.69577 11.561 9.32099 11.8051 9.85057L12.3417 11.015C12.7306 11.8588 11.8588 12.7306 11.015 12.3417L9.85057 11.8051C9.32099 11.561 8.69577 11.82 8.49387 12.367L8.04996 13.5698C7.72826 14.4415 6.49538 14.4415 6.17367 13.5698L5.72976 12.367C5.52787 11.82 4.90265 11.561 4.37307 11.8051L3.20867 12.3417C2.36481 12.7306 1.49304 11.8588 1.88193 11.015L2.41855 9.85057C2.6626 9.32099 2.40363 8.69577 1.85659 8.49387L0.653786 8.04996C-0.2179 7.72826 -0.217899 6.49538 0.653786 6.17367L1.85658 5.72976C2.40363 5.52787 2.6626 4.90265 2.41855 4.37307L1.88193 3.20867C1.49304 2.36481 2.36481 1.49304 3.20867 1.88193L4.37307 2.41855C4.90265 2.6626 5.52787 2.40363 5.72976 1.85658L6.17367 0.653786Z" fill="#D9D9D9"/>
</svg>
